<?xml version="1.0" ?><svg id="Layer_3" style="enable-background:new 0 0 32 32;" version="1.1" viewBox="0 0 32 32" xml:space="preserve" xmlns="http://www.w3.org/2000/svg" xmlns:xlink="http://www.w3.org/1999/xlink"><g><path d="M16,31c7.6123,0,13.80566-6.19336,13.80566-13.80615c0-5.81055-3.66406-11.03027-9.11816-12.98779   c-0.51855-0.18701-1.09277,0.0835-1.2793,0.60352s0.08398,1.09277,0.60352,1.2793   c4.66211,1.67285,7.79395,6.13574,7.79395,11.10498C27.80566,23.70361,22.50977,29,16,29S4.19434,23.70361,4.19434,17.19385   c0-4.96924,3.13184-9.43213,7.79395-11.10498c0.51953-0.18652,0.79004-0.75928,0.60352-1.2793s-0.7627-0.79102-1.2793-0.60352   C5.8584,6.16357,2.19434,11.3833,2.19434,17.19385C2.19434,24.80664,8.3877,31,16,31z"/><path d="M15,2v8.69092c0,0.55225,0.44727,1,1,1s1-0.44775,1-1V2c0-0.55225-0.44727-1-1-1S15,1.44775,15,2z"/></g></svg>